<?xml version='1.0' encoding='utf-8'?>
<svg xmlns="http://www.w3.org/2000/svg" version="1.1" id="Layer_1" x="0px" y="0px" viewBox="0 0 5000 496.6" style="enable-background:new 0 0 5000 496.6;"> <g transform="translate(253.61543,-778.65015)"> <path d="M2007.3,1000.5c0,10,33.4,25.5,58.2,4.6c4.5-3.8,12.3-8.1,17.2-9.5c11.3-3.2,16-11.6,14-25.1c-3.3-22.5-24-36.3-44.8-41 c-11.2-2.5-22.5-2-33.9-1.3c-3.8,0.2-25.6,0.6-25.6,7.3c0,1.2,5,5.7,11.2,10c19.9,14.1,24,33,10,46.1 C2010.2,994.9,2007.3,998.8,2007.3,1000.5z"/> <path d="M1662.9,901.1c8.6,3.2,17.1,6,18.9,6c5.8,0.3,6.2-7.1,0.8-14.7c-8.7-12.3-6.5-24.4,7-38.8c4.6-4.9,9-6.9,14.8-6.9 c4.6,0,8.4-0.4,8.4-1c0-0.6,0.7-2.7,1.4-4.8c2.8-7.2-28.7-43.2-57.1-23.8c-10,6.8-31.9,28.4-35.3,34.7 C1613.3,867.9,1631.1,889.1,1662.9,901.1z"/> <path d="M2770.7,833c3.2,2.7,5.6,2.3,13.6-2.2c10.9-6.1,15.6-5.3,26,4.3c12.9,12,6.3,33.3-13.3,43.2c-10.2,5.1-11.9,7.5-8.3,11.2 c1,1.1,13.2,1.5,27.1,0.9c28.2-1.2,41.5-6.2,53.2-20.1c14-16.5,13.7-27.1-0.9-34c-7.1-3.4-9.4-6.1-10.1-11.9 c-3.4-31.1-54.9-36.1-84.2-8.1C2765.9,823.9,2765.1,828.3,2770.7,833z"/> <path d="M380.7,1086.8c-14.3-0.1,10.7,29.1-31.3,28.8c-27.8-0.2-57.9-20.5-64.4-43.5c-13.8-48.7,6.6-114.6,33.3-137.4 c6.9-5.9,12.5-11.6,12.5-12.6c0-6.5-39.6,3.8-66.5,17.3c-17,8.5-40.1,28.7-51.6,45c-12,17.1-30.6-1.3-80,27.3 c-16.8,9.8-30.6,17.2-42.9,33c-65.3,84-41.8,62.5-81.1,109.7c-10.9,13.1-44.3,37.6-59.2,43.5c-5.1,2-11.5,4.7-14.3,5.9 c-24.2,11-51.7,12.1-64.5,2.6c-8.9-6.6-9.9-6.7-9.9-0.1c0,13.3,19.9,29.2,47.3,37.8c13.2,4.1,14.4,5.1,15.1,12.6 c0.9,9.5,9.6,14.2,32.7,17.7c30.9,4.6,71.7-5.9,96.3-25.9c2.1-1.7,5.8-3.8,8.3-4.7c3.9-1.4,4.4-0.3,3.8,7.8 c-0.7,9.1-0.5,9.4,8.2,10.2c16.1,1.4,53.2-19.3,71.9-40.2c12-13.4,24.4-36.3,34.4-63.5c12.6-34,11.6-25.6,27.4-72.2 c15.6-46.1,22.7-52.6,33.7-65.7c-1.5,6.5-2.5,12.6-9.3,27.6c-22.7,50.6-17.7,127.2,36.8,156.6c14.9,8,26.7,7.5,38.4-1.8 c17.6-13.9,16.3-16.7,16.5-35.2l15.9,0.1c19.5,0.1,37.9-10.9,47.5-27.8C399.8,1115.1,390.7,1086.8,380.7,1086.8z"/> <path d="M-141.4,1160.2c10.2-1.4,10-12.7-0.5-20.2c-7.1-5.1-11.3-6-28.5-6c-21.8-0.1-35.8,5-49.6,17.9c-7.6,7.1-16.8,24.3-18,33.4 c-0.5,3.7-3.7,7.8-8.3,10.3c-7.2,4-7.6,4.9-7.4,20.3c0.2,24.9,7.9,35.5,31.2,43c12.7,4.1,43.2,0,59.4-7.9 c22.2-10.8,26.3-20,12.2-27.6c-9.9-5.3-18.5-17.1-18.4-25.2C-169.2,1180.1-156,1162.2-141.4,1160.2z"/> <path d="M2324.2,873.5c19.9-20.4,45.4-32.9,83.4-41c32.9-7,61.6,1.5,106.1,31.6c16.8,11.3,34.9,21.9,40.3,23.5 c5.4,1.6,18.2,2.6,28.6,2.2c21.7-0.8,18.4,0,31.2-19.6l8.7,5.2c7.9,4.7,35.3,13.3,50.9,16c32.1,5.5,79.7-4.3,102.4-21.2 c14.1-10.5,16.1-15.5,7.9-20.5c-3.6-2.3-5.4-1.8-8.8,2.5c-6,7.5-25,9.3-47.2,4.5c-45.3-9.7-114.4-64-194.3-75.1 c-51.8-7.2-104.8-1.3-151.9,21.5C2330.5,827.7,2294.6,903.7,2324.2,873.5z"/> <path d="M1705.2,884.2c0,12.1,32.9,31.6,60.4,35.8c19.3,3,63.6,1.9,74.4-1.8c32.6-11.1,20.7-3.8,75.7-30.3 c13.5,10.2,12.9,11.5,34.1,10.9c23.9-0.6,36.4-5,60.4-21.1c34.6-23.3,57.3-32.7,86.3-35.6c22.8-2.3,54.7,10.7,71,28.8 c9.9,11,14.3,12.9,14.3,6.1c0-8-12.1-24.9-28-39c-23.8-21.1-48.4-33.6-84.4-42.8c-48.3-12.3-86.1-10.9-128.9,4.9 c-17.2,6.3-81.9,39.3-101.5,51.7c-40.9,25.8-77.1,39.2-99,36.8c-7.9-0.9-17.6-3.3-21.4-5.3C1709.1,878.4,1705.2,878.7,1705.2,884.2 z"/> <path d="M2518.5,940.3c20.4-8.6,10-17.6-20.8-18c-30.9-0.4-60.6,16-74.1,40.9c-9.1,16.8-9.7,24.9-2.4,36.7c5,8.1,6,8.6,15,7.1 c8.3-1.4,11-0.5,19.2,6c5.2,4.2,11.8,8.2,14.6,8.9c12.5,3.3,26.8-0.1,35.5-8.5c10.7-10.3,10.9-16.1,1-21.3 c-9.6-5-13.6-13.5-11.4-24.7C2497.4,955.2,2505.5,945.8,2518.5,940.3z"/> <path d="M971.7,1166.4c-18-17.6-44.6-17.1-69.7-16.9c-24.7,0.2-54.5,3.8-66.7,23.9c-5.9,9.7-1.5,14.3-23.4,20 c-19.8,5.2-26.1,4.2-35.6-5.7c-4.7-4.9-10-8.9-11.8-8.9c-4.3,0-4.2,0.9,1.8,12.7c13.1,25.9,41.6,40.4,69.4,44.2 c82.2,11.2,100.8-70.5,131.5-46.1c9.8,7.8,13.3,6.6,13.3-4.7C980.5,1177.8,976.9,1171.5,971.7,1166.4z"/> <path d="M4167.9,968.3c5.3-1-12.4-20-32.3-34.7c-54.7-40.5-111.1-65.9-188.8-84.8c-80.9-19.7-126.2-24.9-219-25 c-351-0.3-787.3,206.8-941.6,256c-93,29.6-119.4,26.7-133.7,31.7c-5.3,1.8-20.6,1.8-56.6,6c-47.2,5.4-129.5-3.7-170.7-18.9 c-8.1-3-14.6-6.4-14.6-7.6c0-9.5,37.2,14.3,129.8,6.9c41-3.3,48.4-4.9,69.3-15.4c15.9-8,34.5-28.8,36.9-41.4 c2.2-11.8-2.2-22.1-9.5-22.1c-7.9,0-11.9-4.6-11.9-13.6c0.1-17.2-16.9-41.3-34.3-48.6c-13.2-5.5-38.2-7.2-49.8-3.2 c-11,3.7-14.4,8.8-7.4,11.1c17.1,5.6,22.7,15.8,19.7,35.8c-1.5,10-4.1,14-18.6,28.2c-17.7,17.4-24.9,20.7-60.5,27.5 c-28,5.3-55.7,1.2-96.3-14.4c-21.9-8.4-25.5-10.8-42.4-28.2c-19.4-19.9-28.4-36-38.5-68.8c-6.6-21.4-5.2-53.3,3.1-71.9 c7.5-16.7,27.6-46.1,34.9-50.8c7-4.5,5.2-9.2-2.5-6.8c-8.4,2.6-29.9,18.7-40,29.9c-15.7,17.4-22.5,33.5-28.9,68 c-7.1,38.6-2.8,44.3,3.8,79.4c5.6,29.7,18.4,49.6,55,85.9c31.1,30.9,64,56.5,86.2,67.3c27.9,13.5,19.7,13.7,79.5,37.2 c183.3,72.1,355,97.9,545.9,63.8c232.6-41.6,403.5-135,531.2-149.9c33.8-3.9,55.2-15,114.7-2c17.9,3.9,23.2,5.7,39,13.3 c11,5.3,25.1,26.4,25.1,37.5c0,12.3,6,13.3,12,2.1c3.6-6.7-2-29-10.5-41.9c-13.7-20.9-50.5-49-80.4-61.5 c-24.6-10.3-79.8-19.4-117.7-19.5c-41.7-0.1-149.9,17.7-210.2,34.5c-147.3,41-350.9,93.3-503.4,109.6c-43.8,4.7-204.8,3.4-255.9-2 c-66.1-7-118.4-19.8-121.7-29.7c-1.3-4,6-3.3,47.8,4.8c104.8,20.2,272,13.9,370.2-3.4c79.6-14.1,5.7,2.2,167.8-36 c104.2-24.6,392.2-113.5,404.9-116c89.8-17.9,242.3-75.4,473.2-75c63.1,0.1,64.4,0.2,126.2,11.4c34.1,6.2,68.9,18.4,95.5,33.4 C4154.1,963.3,4165.9,968.7,4167.9,968.3z"/> <path d="M4617.4,1191.7c-27.9,3.4-36.8,3.3-54.1-0.6c-34.4-7.8-64.9-33.8-86.5-74.1c-9-16.6-36.2-51.4-66.7-85.1 c-21.3-23.5-73.1-61.9-105.1-77.8c-19.6-9.8-24.2-11-43.4-11.9c-19.4-0.9-23.9-2.2-47.9-13.6c-14.5-6.9-36.4-15.4-48.5-19 c-35.2-10.2-40.2-8.3-20.4,8c23,19,45.4,46.3,54.3,66.3c24.2,54.5-11.2,128.4-48.7,138.7c-20.6,5.6-49.1-0.2-61.9-12.7 c-4.4-4.2-8.8-7.7-9.9-7.7c-17.3-0.1-18.3,86.2,63.6,92.1c13.4,1,13.9,1.3,15.5,9.4c4.1,20.4,30.1,27.9,59.3,17.1 c67.7-25,88.9-152.9,15.2-235.9c-17.3-19.5-17.9-28.1-1-15.1c30,23.1,51.7,55.3,65.2,90.4c13.3,34.4,13.1,71.6,25.6,105.9 c9.1,25,43.9,64.7,63.4,72.2c10.7,4.1,11.6,4.1,16.2,0c6.8-6.1,12.8-28.4,16.6-31.5c1.7-1.4,10.1,4.9,22.7,16.9 c18.9,18,33.4,27.4,54,35.3c10.1,3.9,39.7,3.8,42.9,0c1.2-1.4,2.5-6,3-10.1c0.9-7.5,1-7.6,19.8-8.9c27.2-1.9,44.5-10.3,55.3-27 C4624.8,1199,4625.4,1190.7,4617.4,1191.7z"/> <path d="M4743.4,1229c-2.4-3.6-6.4-7.1-9.1-7.8c-5.7-1.5-6.1-5.3-1.1-12.3c11-15.6,10.2-40-1.8-55c-5.3-6.6-7.4-7.4-19.5-7.3 c-31.3,0.4-49.3-21.2-82.9-6.9c-13.2,5.6-17.8,11.6-10.7,13.9c2.4,0.8,11.3,4.8,19.8,8.8c21.7,10.4,27.4,23,20.5,45.6 c-4.8,15.9-24.3,32.2-38.4,32.2c-22.1,0,22.6,22.7,56.2,28.7c14.1,2.5,25.5,1.6,40.9-3.1c17.6-5.4,23.1-9.8,27.5-22.2 C4747.2,1237,4746.9,1234.4,4743.4,1229z"/> <path d="M2229,879.5c-5.9-12.7-13.1-22-28-36.7c-11-10.8-21.5-19.6-23.4-19.6c-5.4,0-3.9,6.3,3.4,14.1 c9.8,10.7,20.7,28.7,23.4,38.9c2.9,11.1,5.7,40.6,5.2,55.5c-0.7,21.6-10.5,47.8-24.7,66.2c-14.6,18.9-25.7,27.7-52.5,41.8 c-24.7,13-39.2,17-67.3,18.5c-24.6,1.4-45.7-1.3-65.2-8.3c-13.7-4.9-34.5-28.8-37-42.6c-2.7-14.4,1.5-26.3,11.7-33.1 c17.2-11.5,7.3-20.7-24.7-22.8c-21.8-1.5-33.8,3.1-48.7,18.7c-10.3,10.7-14.9,22-15,36.5c0,9-0.9,10.2-9.4,13.7 c-10.4,4.3-15.7,9.9-15.8,16.7c-0.1,6.7,8.5,22.4,16.6,29.9c18.9,17.7,62.1,37.7,89.6,41.5c21.2,2.9,64.2,1.7,81.8-2.3 c15.6-3.5,40-9.1,55-14.3l-5.1,5.1c-12.6,12.8-63.1,26.4-112.3,30.2c-100.5,7.7-218.6-29.7-278.4-46.4 c-135.9-37.7-285.8-119.2-608.7-214.2c-157.1-46.2-244.8-54.5-335.8-54.5c-134.6,0-248.4,18.1-317.9,50.6 c-72.4,33.8-105.3,59.7-124.1,97.6c-9.8,19.9-13.7,36-9.2,38.8c1.5,0.9,8.1-3.8,14.8-10.4c34.6-34.2,125.3-75.7,208.5-77.9 c151.7-4,284,13.2,432.9,48.3c15.2,3.6,305.1,70.1,525.1,135c75.2,22.2,175.7,46.2,225.3,53.9c136.2,20.9,245.2,9.8,227.1,21 c-9.5,5.8-132.6,7.9-187.9,3.1c-105.5-9-124.3-14.6-239.4-41.4c-206.1-48-344.7-107.1-524.9-106.3c-61.3,0.3-125.4,3.3-180.8,32 c-18.7,9.7-27.4,16.7-48.8,39.5c-19,20.2-30.4,52.5-18.4,52.5c7.2,0,10.3-10.5,12.7-15.4c3.9-7.8,11.1-13.8,18-19.2 c31.6-24.5,68.8-26.7,107.1-26.4c46.7,0.4,72.7,4.8,127.6,21.7c290.6,89.2,309.5,95.7,353.1,105.7c88.7,20.3,189.1,35.6,281.7,37 c87.4,1.3,102.8,1.1,198.9-17.4c124.6-24,241.7-71.4,333.5-159.7C2243.7,1012.2,2260.6,946.9,2229,879.5z"/> <path d="M2280.1,1209.5c2-3.9,5.5-7.8,7.6-8.6c6-2.3,4.6-7.5-3.3-12.1c-5.2-3-7.7-6.9-9-13.8c-3-16.5-14.5-33.5-22.7-33.8 c-7.7-0.3-21.5,23.2-21.6,36.6c0,9.3-16,21.3-10.7,23.1c6.2,2.1,10.6,8.7,10.6,15.8c0,5.4-2.5,9.3-10,15.2 c-10.5,8.4-11.4,15.7-1.9,14c12.8-2.4,20.9-4.9,25.5-8.1c14.2-9.6,15,5.2,32,9.3c11.6,2.8,12.9,2.8,17.2,0 C2302.8,1241.3,2269.3,1230.3,2280.1,1209.5z"/> <path d="M3718.9,1138.3c-16.4,13.7-23.5,21-54.7,7.1c-10.8-4.8-27.7-10.2-37.5-12c-15.3-2.8-19.7-2.7-31.6,0.7 c-22.4,6.4-20.5,16.2-42.7,21.4c-53.5,12.4-82.9,53-70.8,53c1.4,0,8-3.4,14.8-7.5c16-9.7,37.3-9.7,53.9-2 c20.8,9.6,42,18.8,64.6,23.1c61,11.7,102.7-19.4,110.5-57.9C3727,1156.2,3721.7,1145.1,3718.9,1138.3z"/> <path d="M2348.5,1127.7c-21.2-13.5-58.2-52-70.3-73.2c-5.7-10-12.2-26.3-15-37.8c-6.3-25.8-11.7-28.4-15.9-7.9 c-6.4,31.5-25,55.7-71.4,93.1c-57.1,45.9-78.9,73.7-79.3,100.7c-0.2,18.5,5.8,28.2,22.4,35.8c16.3,7.5,29.7,6.5,41.2-3.1 c6.1-5.1,8.4-5.7,14-3.5c9.1,3.5,17.1,3.3,22.6-0.7c4.4-3.2,4.4-3.7,0.2-11.8c-3.3-6.5-4-12.4-3.1-25c1.3-17,8.1-32.3,25.4-57.6 c11.3-16.5,30.4-57.1,34.7-57.1c1.7,0,5,5.7,7.5,12.6c6.9,19.7,11,26.4,29,46.7c18,20.4,27.2,36.2,29.9,51.1 c1.9,10.6-0.9,17.5-10.5,25.7c-5.6,4.8-6,6-3,10.8c4.5,7.3,13,10.8,26.5,10.8c17.3,0.1,17.2,6.7,32,10.3c12,2.9,13,2.8,22.6-1.1 c18.6-7.7,29.7-27.9,26.5-48.4C2411.3,1179.6,2383.7,1150,2348.5,1127.7z"/> </g> </svg>